<?xml version="1.0" encoding="UTF-8" standalone="no"?>
<!-- Created with Inkscape (http://www.inkscape.org/) -->

<svg
   version="1.1"
   id="svg870"
   width="1131.5223"
   height="938.13519"
   viewBox="0 0 1131.5224 938.13517"
   sodipodi:docname="panda.svg"
   inkscape:version="1.1.2 (0a00cf5339, 2022-02-04)"
   xmlns:inkscape="http://www.inkscape.org/namespaces/inkscape"
   xmlns:sodipodi="http://sodipodi.sourceforge.net/DTD/sodipodi-0.dtd"
   xmlns="http://www.w3.org/2000/svg"
   xmlns:svg="http://www.w3.org/2000/svg">
  <defs
     id="defs874">
    <inkscape:path-effect
       effect="bspline"
       id="path-effect1883"
       is_visible="true"
       lpeversion="1"
       weight="33.333333"
       steps="2"
       helper_size="0"
       apply_no_weight="true"
       apply_with_weight="true"
       only_selected="false" />
    <inkscape:path-effect
       effect="bspline"
       id="path-effect1846"
       is_visible="true"
       lpeversion="1"
       weight="33.333333"
       steps="2"
       helper_size="0"
       apply_no_weight="true"
       apply_with_weight="true"
       only_selected="false" />
    <inkscape:path-effect
       effect="bspline"
       id="path-effect1809"
       is_visible="true"
       lpeversion="1"
       weight="33.333333"
       steps="2"
       helper_size="0"
       apply_no_weight="true"
       apply_with_weight="true"
       only_selected="false" />
    <inkscape:path-effect
       effect="bspline"
       id="path-effect1772"
       is_visible="true"
       lpeversion="1"
       weight="33.333333"
       steps="2"
       helper_size="0"
       apply_no_weight="true"
       apply_with_weight="true"
       only_selected="false" />
    <inkscape:path-effect
       effect="bspline"
       id="path-effect1489"
       is_visible="true"
       lpeversion="1"
       weight="33.333333"
       steps="2"
       helper_size="0"
       apply_no_weight="true"
       apply_with_weight="true"
       only_selected="false" />
    <inkscape:path-effect
       effect="bspline"
       id="path-effect1452"
       is_visible="true"
       lpeversion="1"
       weight="33.333333"
       steps="2"
       helper_size="0"
       apply_no_weight="true"
       apply_with_weight="true"
       only_selected="false" />
    <inkscape:path-effect
       effect="bspline"
       id="path-effect1302"
       is_visible="true"
       lpeversion="1"
       weight="33.333333"
       steps="2"
       helper_size="0"
       apply_no_weight="true"
       apply_with_weight="true"
       only_selected="false" />
    <inkscape:path-effect
       effect="bspline"
       id="path-effect995"
       is_visible="true"
       lpeversion="1"
       weight="33.333333"
       steps="2"
       helper_size="0"
       apply_no_weight="true"
       apply_with_weight="true"
       only_selected="false" />
    <inkscape:path-effect
       effect="bspline"
       id="path-effect995-3"
       is_visible="true"
       lpeversion="1"
       weight="33.333333"
       steps="2"
       helper_size="0"
       apply_no_weight="true"
       apply_with_weight="true"
       only_selected="false" />
  </defs>
  <sodipodi:namedview
     id="namedview872"
     pagecolor="#505050"
     bordercolor="#ffffff"
     borderopacity="1"
     inkscape:pageshadow="0"
     inkscape:pageopacity="0"
     inkscape:pagecheckerboard="1"
     showgrid="false"
     inkscape:zoom="0.59246958"
     inkscape:cx="738.43454"
     inkscape:cy="682.73548"
     inkscape:window-width="1918"
     inkscape:window-height="1020"
     inkscape:window-x="0"
     inkscape:window-y="29"
     inkscape:window-maximized="1"
     inkscape:current-layer="g5117" />
  <g
     inkscape:groupmode="layer"
     id="layer1"
     inkscape:label="1"
     style="display:inline;opacity:1"
     transform="translate(-14.401653,-134.40729)">
    <g
       id="g5083"
       transform="translate(-1.1228309,3.8665696)">
      <g
         id="g5117">
        <g
           id="g5254">
          <g
             id="g4870"
             transform="translate(-14.732439,0.4535322)">
            <path
               style="display:inline;opacity:1;fill:#ffffff;fill-opacity:1;stroke:#000000;stroke-width:0;stroke-linecap:butt;stroke-linejoin:miter;stroke-miterlimit:4;stroke-dasharray:none;stroke-opacity:1"
               d="m 131.82265,418.53752 c -3.74802,15.12772 -13.16056,35.35366 -22.03832,59.89524 -8.87777,24.54159 -17.220441,53.39744 -23.948024,83.94266 -6.727583,30.54522 -11.839761,62.77777 -15.347329,89.25916 -3.507569,26.48138 -5.410397,47.21005 -6.771016,73.15847 -1.360618,25.94842 -2.179012,57.11486 -1.139508,81.51126 1.039504,24.39639 3.936592,42.02125 7.557498,57.09301 3.620906,15.07176 7.965165,27.58949 15.112572,40.84047 7.147407,13.25098 17.097077,27.23445 26.451507,37.7206 9.35442,10.48615 18.11276,17.47466 28.53101,25.23988 10.41825,7.76522 22.49571,16.30672 35.78799,23.11574 13.29229,6.80901 27.79857,11.88559 46.65193,18.41519 18.85335,6.5296 42.05262,14.5119 66.42888,20.8245 24.37625,6.3127 49.92807,10.9555 75.62662,15.4866 25.69855,4.5311 51.54229,8.9502 76.35603,12.1601 24.81374,3.21 48.59609,5.2109 69.07412,6.9789 20.47803,1.7679 37.65058,3.3029 61.45816,3.8248 23.80757,0.5218 54.2487,0.031 79.30032,-0.6611 25.05162,-0.6919 44.71235,-1.5843 65.61676,-2.8927 20.9044,-1.3083 43.05119,-3.0324 65.24471,-5.3887 22.19351,-2.3562 44.43242,-5.3443 66.50166,-8.4993 22.06925,-3.1549 43.96764,-6.4764 62.99414,-10.7665 19.0265,-4.29 35.18019,-9.5483 47.83587,-13.3727 12.65569,-3.8245 21.8125,-6.215 38.01091,-11.5917 16.19846,-5.3766 39.43756,-13.7391 57.64936,-22.43932 18.2119,-8.70027 31.3958,-17.73796 42.4196,-27.34635 11.0238,-9.6084 19.8871,-19.78707 28.9646,-32.28832 9.0774,-12.50125 18.3685,-27.32442 24.5639,-44.46993 6.1955,-17.14552 9.2951,-36.61284 10.488,-58.96603 1.1929,-22.35319 0.479,-47.59108 -1.6808,-73.9278 -2.1599,-26.33673 -5.7657,-53.77074 -9.5311,-78.83859 -3.7653,-25.06784 -7.6901,-47.76807 -12.7447,-72.20993 -5.0547,-24.44187 -11.2391,-50.62391 -17.363,-72.86467 -6.1239,-22.24076 -12.1872,-40.53905 -18.0799,-56.37997 -5.8926,-15.84093 -11.6144,-29.22361 -18.5404,-44.48381 -6.9261,-15.2602 -15.0559,-32.39697 -34.7213,-60.048 -19.6654,-27.65102 -50.86538,-65.81439 -86.9534,-89.33081 -36.08801,-23.51643 -77.06211,-32.38396 -109.97076,-39.51788 -32.90865,-7.13393 -57.75005,-12.53386 -81.74419,-16.25119 -23.99414,-3.71732 -47.13954,-5.75168 -70.17354,-7.05023 -23.034,-1.29855 -45.95516,-1.86116 -69.91832,-2.07615 -23.96316,-0.215 -48.96683,-0.0823 -75.60037,0.93955 -26.63354,1.0219 -54.89526,2.93302 -80.35429,5.66806 -25.45904,2.73504 -48.11381,6.29388 -67.88523,10.24375 -19.77142,3.94986 -36.65826,8.29055 -55.84449,12.28319 -19.18623,3.99265 -40.67076,7.63696 -72.45335,15.08541 -31.78259,7.44846 -73.861,18.70056 -99.89581,39.79957 -26.03482,21.09901 -36.02391,52.04266 -40.05988,72.53026 -4.03596,20.4876 -2.11909,30.5176 -5.86712,45.64531 z"
               id="path993"
               inkscape:path-effect="#path-effect995-3"
               inkscape:original-d="m 137.48737,413.43885 c -9.41154,20.22695 -18.82408,40.45289 -28.23761,60.67783 -8.34201,28.85801 -16.684685,57.71386 -25.028525,86.5693 -5.11138,32.23484 -10.22356,64.46739 -15.33684,96.69959 -1.9019,20.73049 -3.80473,41.45916 -5.7086,62.18725 -0.81743,31.16868 -1.63582,62.33512 -2.45523,93.50118 2.8982,17.62657 5.79529,35.25143 8.69144,52.87564 4.34543,12.51924 8.68969,25.03697 13.03304,37.55395 9.95108,13.98504 19.900745,27.96852 29.849625,41.95128 8.75968,6.9898 17.51802,13.97831 26.27553,20.96596 12.07894,8.54287 24.1564,17.08437 36.2331,25.62503 14.50783,5.0777 29.01408,10.15434 43.51963,15.22994 23.20118,7.9836 46.40044,15.9659 69.59915,23.9473 25.55386,4.6441 51.10569,9.2869 76.65704,13.9289 25.84576,4.4202 51.68949,8.8393 77.53274,13.2574 23.7843,2.0019 47.56664,4.0028 71.34846,6.0027 17.17424,1.536 34.34679,3.071 51.51868,4.605 30.44336,-0.4901 60.88449,-0.9812 91.32524,-1.4734 19.66252,-0.8915 39.32325,-1.784 58.98339,-2.6775 22.1487,-1.7232 44.2955,-3.4472 66.4418,-5.1724 22.2408,-2.9872 44.4797,-5.9754 66.718,-8.9646 21.9002,-3.3207 43.7986,-6.6422 65.6964,-9.9648 16.1554,-5.2575 32.3091,-10.5157 48.4622,-15.775 9.1582,-2.3896 18.315,-4.7802 27.4709,-7.1717 23.24107,-8.3617 46.48027,-16.724 69.71887,-25.08774 13.1854,-9.03696 26.3693,-18.07466 39.5525,-27.1136 8.8647,-10.17809 17.728,-20.35677 26.5905,-30.53666 9.2925,-14.82279 18.5835,-29.64599 27.8738,-44.47049 3.1006,-19.46708 6.2002,-38.93439 9.2988,-58.40308 -0.7129,-25.2379 -1.4268,-50.47579 -2.1417,-75.71519 -3.605,-27.43412 -7.2107,-54.86815 -10.8176,-82.30372 -3.9239,-22.70014 -7.8487,-45.40036 -11.7745,-68.10205 -6.1836,-26.18208 -12.368,-52.36411 -18.5534,-78.54767 -6.0625,-18.29801 -12.1258,-36.59629 -18.1902,-54.89594 -5.721,-13.38222 -11.4428,-26.76491 -17.1658,-40.14887 -8.1291,-17.13642 -16.259,-34.27316 -24.3899,-51.41124 -31.2002,-38.16389 -62.40017,-76.32725 -93.60177,-114.49238 -40.9747,-8.86688 -81.9488,-17.73441 -122.9247,-26.60311 -24.8414,-5.39915 -49.6828,-10.79909 -74.5257,-16.20013 -23.1453,-2.03345 -46.2907,-4.06781 -69.4376,-6.10321 -22.92104,-0.56163 -45.8422,-1.12424 -68.76482,-1.68785 -25.00367,0.13365 -50.00734,0.2663 -75.0125,0.39796 -28.26186,1.91219 -56.52358,3.82332 -84.78688,5.73348 -22.65466,3.55999 -45.30943,7.11883 -67.96564,10.67675 -16.88651,4.34186 -33.77335,8.68255 -50.66153,13.02233 -21.48439,3.64546 -42.96892,7.28978 -64.45488,10.93317 -42.07909,11.25356 -84.1575,22.50567 -126.23775,33.757 -9.9885,30.94589 -19.97759,61.88954 -29.96789,92.8328 1.91795,10.0314 3.83482,20.0614 5.75073,30.09059 z" />
            <path
               style="fill:#000000;stroke:#000000;stroke-width:0;stroke-linecap:butt;stroke-linejoin:miter;stroke-miterlimit:4;stroke-dasharray:none;stroke-opacity:1"
               d="m 38.513386,284.81021 c 3.472356,-10.47332 10.222936,-29.08772 17.291284,-44.49012 7.068349,-15.40241 14.454144,-27.59207 23.477851,-38.62676 9.023708,-11.03468 19.68454,-20.91344 31.599369,-28.4469 11.91482,-7.53347 25.08241,-12.72107 42.80424,-17.53354 17.72182,-4.81247 39.99647,-9.24958 59.718,-12.2805 19.72154,-3.03091 36.8887,-4.65554 51.9509,-3.6279 15.0622,1.02764 28.01828,4.70702 37.5317,10.60019 9.51342,5.89317 15.58402,13.99896 22.24233,23.42977 6.6583,9.4308 13.90396,20.186 19.42244,30.83915 5.51847,10.65315 9.30981,21.20357 9.66273,29.12197 0.35292,7.91841 -2.73192,13.20529 -8.74709,18.94985 -6.01517,5.74456 -14.96064,11.9469 -25.02629,18.04005 -10.06564,6.09315 -21.25098,12.07679 -32.76456,18.7695 -11.51357,6.69271 -23.35459,14.09404 -36.48789,22.57504 -13.13329,8.481 -27.55801,18.04112 -38.15458,26.89146 -10.59658,8.85033 -17.36414,16.9901 -23.40222,25.56339 -6.03808,8.5733 -11.34625,17.5794 -14.96094,24.57405 -3.6147,6.99465 -5.53571,11.97723 -9.15729,15.81965 -3.62158,3.84242 -8.94407,6.54521 -12.81941,7.7318 -3.87534,1.18658 -6.30404,0.85658 -12.22133,0.32521 -5.91729,-0.53137 -15.32269,-1.26401 -25.36797,-2.79686 -10.04528,-1.53285 -20.729908,-3.86597 -30.457747,-7.21758 -9.727839,-3.35161 -18.498363,-7.72181 -25.76409,-12.06535 -7.265727,-4.34354 -13.026166,-8.66038 -17.382907,-14.56599 -4.356741,-5.90562 -7.308909,-13.4 -8.99319,-20.20417 -1.68428,-6.80416 -2.100194,-12.91756 -2.217329,-19.90296 -0.117135,-6.9854 0.06461,-14.84229 0.841543,-21.04369 0.776937,-6.20139 2.149179,-10.74661 2.932505,-14.1851 0.783327,-3.43849 0.977586,-5.77034 4.449941,-16.24366 z"
               id="path1300"
               inkscape:path-effect="#path-effect1302"
               inkscape:original-d="m 35.23537,292.95072 c 6.751578,-18.61339 13.502155,-37.22779 20.251732,-55.84318 7.38709,-12.18915 14.772885,-24.37881 22.157827,-36.56971 10.662259,-9.87815 21.323091,-19.7569 31.983141,-29.63685 13.16912,-5.18681 26.33671,-10.37441 39.50356,-15.56312 22.27655,-4.43629 44.5512,-8.8734 66.82529,-13.3116 17.16885,-1.6237 34.33601,-3.24833 51.50251,-4.87399 12.95761,3.68052 25.91369,7.3599 38.86903,11.03835 6.07185,8.10711 12.14245,16.2129 18.21218,24.31786 7.24695,10.75662 14.49261,21.51182 21.73741,32.26623 3.79249,10.55184 7.58383,21.10225 11.37424,31.65188 -3.08396,5.28808 -6.1688,10.57496 -9.25469,15.86094 -8.94484,6.20359 -17.89031,12.40594 -26.83697,18.60741 -11.18478,5.98488 -22.37012,11.96852 -33.55669,17.95128 -11.84049,7.40263 -23.68151,14.80396 -35.52377,22.20444 -14.42429,9.56151 -28.84901,19.12163 -43.27501,28.68094 -6.76683,8.1411 -13.53439,16.28087 -20.30309,24.4198 -5.30737,9.00746 -10.61554,18.01356 -15.92481,27.01884 -1.92009,4.98379 -3.8411,9.96637 -5.76315,14.94805 -5.32171,2.70389 -10.6442,5.40668 -15.96781,8.10852 -2.4278,-0.32901 -4.8565,-0.65902 -7.28625,-0.99003 -9.40478,-0.73167 -18.81018,-1.4643 -28.21677,-2.19795 -10.68406,-2.33222 -21.36869,-4.66535 -32.054534,-6.99952 -8.769874,-4.36938 -17.540398,-8.73959 -26.312097,-13.11089 -5.75967,-4.31602 -11.520109,-8.63286 -17.281664,-12.95078 -2.951286,-7.49368 -5.903453,-14.98806 -8.85668,-22.48359 -0.414931,-6.11265 -0.830846,-12.22605 -1.247769,-18.34058 0.182748,-7.85619 0.36449,-15.71308 0.545235,-23.57112 1.373297,-4.54441 2.74554,-9.08963 4.11681,-13.63594 0.195267,-2.33094 0.389526,-4.66279 0.582789,-6.99569 z" />
            <path
               style="fill:#000000;stroke:#000000;stroke-width:0;stroke-linecap:butt;stroke-linejoin:miter;stroke-miterlimit:4;stroke-dasharray:none;stroke-opacity:1"
               d="m 830.44084,244.73551 c 0.0335,-6.53172 1.0475,-16.56015 3.02075,-26.89263 1.97325,-10.33249 4.90574,-20.96838 8.44313,-30.73849 3.53739,-9.77011 7.67947,-18.67364 13.0809,-25.96596 5.40143,-7.29232 12.06158,-12.97252 19.48607,-17.10447 7.42449,-4.13195 15.61234,-6.71531 23.24234,-8.4353 7.63,-1.71999 14.70145,-2.57661 22.15973,-3.27403 7.45828,-0.69741 15.30289,-1.23563 25.22762,-1.66727 9.92473,-0.43165 21.92891,-0.75674 31.68923,-0.44878 9.76032,0.30796 17.2761,1.24878 26.29429,2.85735 9.0182,1.60856 19.5382,3.88466 29.0629,7.5017 9.5247,3.61704 18.0535,8.57435 27.0045,15.41285 8.951,6.83849 18.3239,15.55748 27.2376,26.73884 8.9136,11.18135 17.3679,24.82421 25.1225,38.08884 7.7547,13.26463 14.8093,26.15026 19.8817,37.46585 5.0724,11.3156 8.1625,21.06049 9.7672,30.3392 1.6046,9.27871 1.7239,18.09089 0.7167,25.45044 -1.0073,7.35954 -3.1409,13.26652 -6.3085,18.68188 -3.1675,5.41536 -7.3689,10.33935 -13.9784,15.89466 -6.6096,5.5553 -15.6272,11.74183 -24.7942,17.00242 -9.167,5.26059 -18.4829,9.59498 -26.2724,12.62205 -7.7895,3.02707 -14.0524,4.74668 -19.6026,5.40062 -5.5501,0.65395 -10.3877,0.24193 -14.0956,-0.7215 -3.7078,-0.96344 -6.2858,-2.47881 -9.008,-5.84091 -2.7221,-3.3621 -5.5877,-8.57117 -9.8743,-14.61285 -4.2865,-6.04167 -9.994,-12.9155 -17.4098,-19.61594 -7.41592,-6.70044 -16.54,-13.22687 -25.47598,-19.05334 -8.93598,-5.82648 -17.68337,-10.95254 -27.8219,-15.889 -10.13853,-4.93645 -21.66761,-9.68281 -32.60505,-14.01532 -10.93743,-4.33251 -21.28258,-8.25088 -31.13799,-11.81838 -9.8554,-3.56751 -19.22047,-6.78389 -26.35151,-9.48354 -7.13105,-2.69965 -12.0277,-4.88254 -15.79558,-7.34264 -3.76788,-2.4601 -6.40654,-5.19774 -8.19946,-8.08387 -1.79292,-2.88614 -2.73941,-5.92077 -2.70589,-12.45248 z"
               id="path1450"
               inkscape:path-effect="#path-effect1452"
               inkscape:original-d="m 829.46045,248.23133 c 1.01499,-10.02743 2.02898,-20.05586 3.04197,-30.08529 2.9336,-10.63532 5.86609,-21.27121 8.79764,-31.90832 4.14325,-8.90288 8.28534,-17.80641 12.42651,-26.71112 6.6614,-5.67942 13.32154,-11.35962 19.98081,-17.04093 8.18918,-2.58247 16.37703,-5.16583 24.56405,-7.75024 7.07273,-0.85565 14.14418,-1.71227 21.21476,-2.56991 7.84592,-0.53724 15.69053,-1.07546 23.53429,-1.61468 12.00566,-0.3241 24.00984,-0.64919 36.01327,-0.97529 7.51707,0.94186 15.03285,1.88267 22.54775,2.82251 10.5214,2.27719 21.0414,4.55329 31.5607,6.82844 8.5301,4.9585 17.0589,9.91581 25.5869,14.87221 9.3742,8.72031 18.7471,17.43927 28.1191,26.15741 8.4556,13.64438 16.9099,27.28722 25.3633,40.92933 7.0559,12.88715 14.1105,25.77279 21.1643,38.65769 3.0913,9.74627 6.1815,19.49115 9.2707,29.23523 0.1204,8.81354 0.2398,17.62572 0.3581,26.43708 -2.1327,5.90818 -4.2664,11.81513 -6.401,17.72119 -4.2005,4.92517 -8.4019,9.84914 -12.6043,14.77221 -9.017,6.18778 -18.0346,12.37431 -27.0534,18.55997 -9.3154,4.33556 -18.6314,8.66995 -27.9485,13.00343 -6.2621,1.72067 -12.525,3.44027 -18.789,5.15891 -4.8367,-0.41103 -9.6743,-0.82305 -14.513,-1.23607 -2.5771,-1.51445 -5.1551,-3.02983 -7.7342,-4.54625 -2.8647,-5.20826 -5.7303,-10.41732 -8.5969,-15.62748 -5.7067,-6.87309 -11.4142,-13.74689 -17.1227,-20.62184 -9.12346,-6.52569 -18.24754,-13.05212 -27.3728,-19.57968 -8.74674,-5.12527 -17.49413,-10.25134 -26.24269,-15.3785 -11.52853,-4.74555 -23.05761,-9.49191 -34.58791,-14.23936 -10.34457,-3.91752 -20.68972,-7.83589 -31.03607,-11.75534 -9.36445,-3.21552 -18.72952,-6.4319 -28.09578,-9.64936 -4.89584,-2.18197 -9.79249,-4.36486 -14.69024,-6.54879 -2.63778,-2.73675 -5.27644,-5.47438 -7.91616,-8.21308 -0.94552,-3.03375 -1.892,-6.06838 -2.8395,-9.10408 z" />
            <path
               style="fill:#000000;stroke:#000000;stroke-width:0;stroke-linecap:butt;stroke-linejoin:miter;stroke-miterlimit:4;stroke-dasharray:none;stroke-opacity:1"
               d="m 306.06963,566.68358 c 12.15361,-8.38247 28.8793,-18.67196 43.11337,-26.51296 14.23406,-7.84101 25.97586,-13.23328 37.72542,-16.81224 11.74955,-3.57896 23.50577,-5.34451 33.14801,-4.79959 9.64225,0.54493 17.1696,3.39966 23.85713,6.74393 6.68752,3.34427 12.53487,7.17756 18.23012,12.48885 5.69525,5.31129 11.23832,12.0999 15.08672,17.93405 3.8484,5.83414 6.00227,10.71339 7.4805,17.14433 1.47823,6.43095 2.28116,14.4133 1.44508,21.84544 -0.83608,7.43214 -3.31077,14.31415 -6.6461,21.8787 -3.33532,7.56455 -7.53106,15.81135 -16.05694,27.49411 -8.52588,11.68277 -21.38142,26.80103 -36.4434,42.68869 -15.06198,15.88765 -32.32955,32.54386 -49.09708,47.32579 -16.76753,14.78194 -33.03414,27.68885 -45.20426,35.60317 -12.17012,7.91431 -20.24353,10.83577 -26.37069,11.13822 -6.12716,0.30245 -10.30837,-2.01493 -15.13734,-4.89126 -4.82897,-2.87633 -10.30536,-6.31149 -17.04349,-14.21732 -6.73812,-7.90584 -14.73712,-20.28222 -21.1889,-33.66532 -6.45179,-13.3831 -11.35565,-27.77213 -13.53796,-40.50219 -2.18232,-12.73006 -1.64254,-23.80016 0.60225,-34.6537 2.24479,-10.85354 6.19457,-21.48948 12.93244,-32.26978 6.73788,-10.78031 16.26323,-21.70385 24.8168,-30.40354 8.55358,-8.69969 16.13472,-15.1749 28.28832,-23.55738 z"
               id="path1487"
               inkscape:path-effect="#path-effect1489"
               inkscape:original-d="m 301.49725,568.59078 c 16.72671,-10.2885 33.4524,-20.57798 50.1771,-30.86848 11.74327,-5.39148 23.48507,-10.78375 35.2261,-16.17713 11.75769,-1.76462 23.51391,-3.53017 35.26936,-5.29676 7.52866,2.85585 15.05602,5.71058 22.58252,8.56437 5.84859,3.83445 11.69594,7.66774 17.54241,11.50011 5.5443,6.78988 11.08737,13.57849 16.62956,20.36623 2.15496,4.88044 4.30884,9.75968 6.46176,14.63801 0.80396,7.98368 1.60689,15.96603 2.40883,23.94754 -2.47379,6.88329 -4.94848,13.7653 -7.42422,20.64645 -4.19491,8.24813 -8.39065,16.49493 -12.58748,24.7409 -12.85506,15.11986 -25.7106,30.23812 -38.56739,45.35567 -17.26726,16.65787 -34.53483,33.31407 -51.80374,49.96961 -16.26626,12.90842 -32.53287,25.81533 -48.80081,38.7215 -8.07273,2.92257 -16.14614,5.84402 -24.22071,8.76453 -4.18038,-2.31647 -8.36159,-4.63385 -12.54389,-6.95228 -5.47562,-3.4343 -10.95201,-6.86946 -16.42952,-10.30569 -7.99832,-12.37587 -15.99732,-24.75225 -23.99748,-37.12987 -4.90306,-14.38862 -9.80693,-28.77765 -14.7119,-43.16798 0.5408,-11.06954 1.08058,-22.13964 1.61937,-33.21096 3.95094,-10.63536 7.90073,-21.2713 11.84959,-31.90845 9.52674,-10.92298 19.05209,-21.84652 28.57664,-32.77128 7.58245,-6.47448 15.16359,-12.94969 22.7439,-19.42604 z"
               sodipodi:nodetypes="ccccccccccccccccccccccc" />
            <path
               style="fill:#000000;stroke:#000000;stroke-width:0;stroke-linecap:butt;stroke-linejoin:miter;stroke-miterlimit:4;stroke-dasharray:none;stroke-opacity:1"
               d="m 741.9973,655.85048 c 15.04448,15.89128 41.40524,42.65654 60.45025,61.47151 19.04501,18.81496 30.77378,29.67923 42.31376,38.64523 11.53999,8.966 22.89038,16.03346 32.00451,19.61845 9.11413,3.58498 15.99166,3.68807 22.55909,2.38752 6.56743,-1.30054 12.82491,-4.00439 19.40037,-8.43196 6.57546,-4.42757 13.46892,-10.57872 19.90325,-19.57773 6.43432,-8.99902 12.4094,-20.84576 16.83932,-32.02816 4.42992,-11.18241 7.31444,-21.7001 8.48477,-32.99304 1.17033,-11.29294 0.6262,-23.3608 -1.4175,-34.13947 -2.04369,-10.77866 -5.58721,-20.2677 -11.42793,-30.03703 -5.84072,-9.76933 -13.97869,-19.81826 -26.21651,-31.01629 -12.23782,-11.19804 -28.57491,-23.54423 -46.39706,-34.47546 -17.82215,-10.93123 -37.12833,-20.4466 -51.78545,-26.48677 -14.65711,-6.04017 -24.66434,-8.60455 -34.49892,-9.62066 -9.83459,-1.01611 -19.4957,-0.48356 -27.69514,0.83966 -8.19945,1.32321 -14.93645,3.43715 -20.17716,6.30138 -5.24072,2.86424 -8.98425,6.4784 -13.30894,11.10152 -4.3247,4.62312 -9.23018,10.25479 -13.54453,16.87379 -4.31435,6.61899 -8.03716,14.22455 -9.70685,23.08645 -1.66969,8.86191 -1.28643,18.97898 1.00927,27.94754 2.29571,8.96857 6.5031,16.78797 10.471,23.20646 3.96791,6.41849 7.69591,11.43579 22.7404,27.32706 z"
               id="path1770"
               inkscape:path-effect="#path-effect1772"
               inkscape:original-d="m 730.68005,644.97549 c 26.36174,26.76626 52.72249,53.53153 79.08224,80.29579 11.73023,10.86571 23.459,21.72998 35.187,32.59347 11.35184,7.06874 22.70223,14.1362 34.05185,21.2028 6.8788,0.10409 13.75633,0.20717 20.633,0.30926 6.25872,-2.70296 12.5162,-5.40681 18.7728,-8.11171 6.89474,-6.15039 13.7882,-12.30153 20.6808,-18.4538 5.97632,-11.84621 11.95139,-23.69295 17.92558,-35.54093 2.88564,-10.51711 5.77016,-21.0348 8.65374,-31.5537 -0.54315,-12.06735 -1.08728,-24.13521 -1.63243,-36.20431 -3.54265,-9.4884 -7.08617,-18.97743 -10.63075,-28.46764 -8.1373,-10.04834 -16.27526,-20.09727 -24.41439,-30.1474 -16.33675,-12.34569 -32.67384,-24.69189 -49.01226,-37.03933 -19.30596,-9.51476 -38.61214,-19.03013 -57.91972,-28.5467 -10.00663,-2.56349 -20.01386,-5.12787 -30.02229,-7.6933 -9.6605,0.53357 -19.32161,1.06612 -28.98391,1.59768 -6.73627,2.11502 -13.47327,4.22896 -20.2114,6.34193 -3.74269,3.61532 -7.48623,7.22948 -11.23084,10.84272 -4.90469,5.63291 -9.81018,11.26458 -14.71677,16.89537 -3.72197,7.60686 -7.44478,15.21242 -11.16867,22.81712 0.38427,10.11848 0.76752,20.23555 1.14979,30.35182 4.20855,7.82071 8.41594,15.64011 12.6224,23.45866 3.72915,5.0185 7.45715,10.0358 11.18423,15.0522 z" />
            <path
               style="fill:#000000;stroke:#000000;stroke-width:0;stroke-linecap:butt;stroke-linejoin:miter;stroke-miterlimit:4;stroke-dasharray:none;stroke-opacity:1"
               d="m 609.66187,890.27926 c -1.63129,2.40948 -4.89373,7.22821 -8.98643,12.88754 -4.09269,5.65932 -9.01548,12.15906 -14.23063,18.08135 -5.21515,5.92229 -10.72246,11.26697 -16.22998,16.12811 -5.50753,4.86114 -11.01503,9.23856 -16.45943,12.76627 -5.4444,3.52771 -10.82565,6.20562 -16.03138,8.29795 -5.20573,2.09232 -10.23588,3.59893 -15.36677,4.36072 -5.13088,0.76178 -10.36255,0.77851 -16.53949,0.22959 -6.17693,-0.54893 -13.29888,-1.66365 -20.93303,-3.89416 -7.63414,-2.23051 -15.7801,-5.57697 -21.83279,-8.52247 -6.05269,-2.94551 -10.01174,-5.49013 -14.285,-9.19124 -4.27326,-3.70111 -8.86028,-8.55875 -12.99805,-13.38235 -4.13776,-4.82359 -7.82593,-9.61295 -9.66425,-12.0581 -1.83831,-2.44514 -1.82574,-2.54577 2.35031,-6.30661 4.17605,-3.76084 12.51509,-11.1807 16.81828,-14.89286 4.3032,-3.71216 4.56946,-3.71653 6.2254,-2.02568 1.65595,1.69084 4.7015,5.0757 8.0022,8.64557 3.30069,3.56987 6.8563,7.32456 10.01075,10.16 3.15445,2.83544 5.90739,4.75171 8.86717,6.57672 2.95977,1.82501 6.12614,3.5588 8.95624,4.93517 2.8301,1.37637 5.32374,2.3954 8.12502,3.0981 2.80128,0.7027 5.91013,1.08939 9.83948,1.29075 3.92934,0.20135 8.67904,0.21748 13.1318,-0.10036 4.45275,-0.31784 8.60848,-0.9695 12.33938,-2.03839 3.7309,-1.06888 7.03713,-2.55486 10.7162,-4.64787 3.67907,-2.09302 7.73099,-4.793 12.00982,-8.18992 4.27883,-3.39692 8.78449,-7.49067 12.98912,-12.34368 4.20463,-4.85301 8.10818,-10.46522 9.96173,-13.33016 1.85355,-2.86494 1.6557,-2.98298 -1.77817,-3.90314 -3.43386,-0.92016 -10.10346,-2.64197 -16.08269,-4.82105 -5.97923,-2.17907 -11.26777,-4.81558 -16.17765,-7.78743 -4.90989,-2.97185 -9.44076,-6.27908 -13.35773,-9.94354 -3.91697,-3.66445 -7.2196,-7.68617 -10.0343,-11.83902 -2.81471,-4.15284 -5.1411,-8.43666 -6.7864,-12.49801 -1.6453,-4.06134 -2.60908,-7.89996 -3.04159,-11.54873 -0.43252,-3.64877 -0.33342,-7.10726 0.28109,-10.72153 0.6145,-3.61427 1.74454,-7.38377 3.32189,-11.16384 1.57735,-3.78007 3.60192,-7.5702 5.86519,-10.94692 2.26326,-3.37672 4.76496,-6.33955 7.18162,-8.83156 2.41667,-2.49202 4.74802,-4.51292 7.38689,-6.54815 2.63887,-2.03524 5.58497,-4.08459 8.74796,-5.96432 3.163,-1.87972 6.54251,-3.58964 9.94473,-5.157 3.40222,-1.56736 6.82684,-2.99207 10.78379,-4.30371 3.95696,-1.31163 8.44584,-2.51015 13.5081,-3.74472 5.06227,-1.23458 10.69756,-2.50516 16.49972,-3.25837 5.80216,-0.75321 11.77062,-0.98915 17.97157,-1.02369 6.20096,-0.0345 12.63396,0.13226 18.51837,0.72801 5.88441,0.59575 11.21977,1.62021 16.27416,2.77117 5.05438,1.15097 9.82746,2.42828 14.58846,4.03101 4.76099,1.60273 9.50958,3.53061 14.42676,5.98633 4.91718,2.45572 10.00267,5.43891 14.49859,8.81119 4.49592,3.37228 8.40216,7.13314 11.63071,10.92049 3.22855,3.78735 5.77948,7.60081 7.70847,11.23453 1.92899,3.63372 3.23627,7.08745 4.16279,10.0342 0.92652,2.94675 1.47243,5.38641 1.71978,8.49361 0.24735,3.1072 0.19641,6.88193 -0.17859,10.36833 -0.375,3.4864 -1.07389,6.6845 -1.92291,9.40651 -0.84902,2.72202 -1.84808,4.96808 -3.00272,7.114 -1.15464,2.14592 -2.46482,4.19179 -3.85066,6.16218 -1.38585,1.9704 -2.84732,3.86533 -5.17574,6.19779 -2.32842,2.33246 -5.52381,5.10253 -8.34454,7.34587 -2.82072,2.24334 -5.26672,3.95991 -7.75727,5.71627 -2.49054,1.75636 -5.02547,3.55241 -8.37914,5.27064 -3.35366,1.71822 -7.52617,3.35858 -12.17587,4.98328 -4.6497,1.6247 -9.77639,3.23364 -12.2362,4.00173 -2.45981,0.76809 -2.25258,0.69531 -1.51154,2.50074 0.74104,1.80543 2.016,5.48752 3.30204,8.5866 1.28603,3.09908 2.58287,5.61498 4.28697,8.00142 1.70409,2.38645 3.81499,4.64346 5.97125,6.83061 2.15626,2.18716 4.35771,4.30437 7.10748,6.46343 2.74976,2.15905 6.04753,4.36003 9.42545,6.33888 3.37792,1.97886 6.83574,3.73564 10.98775,5.53263 4.15201,1.797 8.99792,3.63424 13.31034,4.93006 4.31242,1.29581 8.09115,2.05036 11.77336,2.61702 3.6822,0.56665 7.26772,0.94549 10.7111,0.84694 3.44337,-0.0985 6.74469,-0.6742 9.95216,-1.46497 3.20746,-0.79076 6.32108,-1.79652 9.45725,-3.45178 3.13617,-1.65527 6.29513,-3.95999 9.19284,-6.46087 2.89772,-2.50088 5.5342,-5.19791 7.71608,-8.12449 2.18189,-2.92658 3.90922,-6.08286 5.64285,-9.13654 1.73363,-3.05367 3.47345,-6.00452 4.72017,-8.49063 1.24672,-2.48611 2.00032,-4.50761 2.53673,-5.45589 0.53641,-0.94828 0.8542,-0.82323 5.10438,2.31064 4.25018,3.13386 12.43249,9.27592 16.6225,12.41937 4.19002,3.14345 4.38755,3.28818 3.7935,4.69789 -0.59405,1.40971 -1.97829,4.08474 -3.72991,6.84534 -1.75162,2.7606 -3.87059,5.60682 -6.27233,8.69522 -2.40174,3.08839 -5.08613,6.41882 -7.70729,9.46843 -2.62115,3.04962 -5.17897,5.81833 -7.56257,8.39543 -2.38359,2.5771 -4.59281,4.96243 -7.83603,7.39506 -3.24321,2.43263 -7.52057,4.91264 -11.52077,6.82475 -4.00021,1.91211 -7.72329,3.25624 -11.74086,4.27584 -4.01756,1.0196 -8.32962,1.71455 -12.6855,2.22386 -4.35588,0.50931 -8.75542,0.8329 -13.2816,0.91436 -4.52619,0.0815 -9.17885,-0.0793 -13.68588,-0.52843 -4.50703,-0.44911 -8.86826,-1.18669 -13.54698,-2.76062 -4.67872,-1.57393 -9.6747,-3.98448 -13.94238,-6.45781 -4.26768,-2.47332 -7.80675,-5.00951 -12.39557,-8.94354 -4.58883,-3.93404 -10.22701,-9.26583 -15.31306,-14.31951 -5.08605,-5.05369 -9.61963,-9.82902 -14.57219,-15.72858 -4.95256,-5.89955 -10.32369,-12.92303 -14.17888,-17.98478 -3.85519,-5.06174 -6.19424,-8.16149 -7.6119,-9.88815 -1.41765,-1.72666 -1.91416,-2.07985 -2.16299,-2.25685 -0.24882,-0.177 -0.24882,-0.17695 -1.88011,2.23252 z"
               id="path1881"
               inkscape:path-effect="#path-effect1883"
               inkscape:original-d="m 611.29316,887.86979 c -3.26143,4.81973 -6.52387,9.63846 -9.78731,14.45619 -4.92198,6.50099 -9.84477,13.00073 -14.76866,19.49959 -5.50654,5.34589 -11.01386,10.69056 -16.52229,16.03434 -5.50672,4.37859 -11.01423,8.75601 -16.52284,13.13251 -5.38046,2.67902 -10.76171,5.35693 -16.14406,8.0339 -5.02935,1.50767 -10.0595,3.01429 -15.09075,4.51993 -5.23088,0.0177 -10.46255,0.0345 -15.69533,0.0502 -7.12122,-1.11377 -14.24317,-2.22849 -21.36625,-3.34423 -8.14529,-3.3456 -16.29125,-6.69206 -24.43838,-10.03959 -3.9582,-2.54373 -7.91725,-5.08835 -11.87738,-7.63402 -4.5862,-4.85683 -9.17322,-9.71447 -13.76133,-14.5732 -3.68731,-4.78854 -7.37548,-9.5779 -11.06471,-14.36834 0.0136,-0.0996 0.0261,-0.20024 0.0377,-0.30185 8.34037,-7.41915 16.67941,-14.839 25.01761,-22.26 0.26727,-0.003 0.53352,-0.008 0.79878,-0.0131 3.04668,3.38599 6.09223,6.77085 9.13684,10.15477 3.55675,3.75584 7.11236,7.51053 10.66704,11.2643 2.75405,1.91734 5.50699,3.83361 8.25899,5.74892 3.1675,1.73486 6.33387,3.46865 9.49931,5.20148 2.49474,1.02007 4.98838,2.03909 7.48107,3.05714 3.10997,0.38771 6.21882,0.77441 9.32673,1.16011 4.75089,0.0171 9.50059,0.0333 14.24938,0.0484 4.1569,-0.65069 8.31263,-1.30234 12.46744,-1.95501 3.30735,-1.48503 6.61358,-2.971 9.91887,-4.458 4.05308,-2.69909 8.105,-5.39907 12.156,-8.1001 4.50684,-4.09291 9.0125,-8.18666 13.51725,-12.2815 3.9047,-5.61144 7.80825,-11.22365 11.71088,-16.83698 -0.19685,-0.11704 -0.3947,-0.23508 -0.59355,-0.35412 -6.66888,-1.72088 -13.33848,-3.44269 -20.00922,-5.16554 -5.28774,-2.6356 -10.57628,-5.2721 -15.86592,-7.90966 -4.53006,-3.30637 -9.06093,-6.6136 -13.59289,-9.92191 -3.30175,-4.02087 -6.60437,-8.04259 -9.90805,-12.06538 -2.32549,-4.283 -4.65188,-8.56682 -6.97931,-12.85173 -0.96282,-3.83777 -1.9266,-7.67639 -2.8914,-11.51609 0.1001,-3.45763 0.1992,-6.91612 0.2973,-10.37568 1.13108,-3.76865 2.26111,-7.53815 3.39016,-11.30872 2.02565,-3.78929 4.05022,-7.57943 6.07384,-11.37064 2.50279,-2.96195 5.00449,-5.92478 7.50524,-8.88867 2.33244,-2.01998 4.66379,-4.04088 6.99418,-6.06283 2.94722,-2.04844 5.89331,-4.0978 8.83847,-6.1482 3.38065,-1.70899 6.76016,-3.41891 10.13873,-5.12986 3.42576,-1.42376 6.85038,-2.84847 10.27406,-4.27421 4.49005,-1.19756 8.97893,-2.39607 13.46689,-3.59561 5.63651,-1.26963 11.2718,-2.54021 16.9062,-3.81182 5.9697,-0.23494 11.93816,-0.47088 17.90575,-0.70782 6.43425,0.1678 12.86725,0.33459 19.29937,0.50039 5.33658,1.0255 10.67194,2.04997 16.00641,3.07345 4.77427,1.27836 9.54735,2.55566 14.31953,3.83199 4.74978,1.92896 9.49837,3.85684 14.24606,5.78376 5.0867,2.98431 10.17219,5.96751 15.25679,8.94977 3.9074,3.76201 7.81364,7.52287 11.71896,11.2828 2.55203,3.8146 5.10296,7.62805 7.65293,11.44057 1.30833,3.45487 2.6156,6.9086 3.9219,10.3614 0.54693,2.44075 1.09285,4.8804 1.63777,7.31909 -0.0499,3.77589 -0.10088,7.55062 -0.15283,11.32443 -0.69791,3.19923 -1.39679,6.39733 -2.09669,9.5945 -0.9981,2.24715 -1.99716,4.49321 -2.99724,6.73831 -1.30924,2.04695 -2.61943,4.09281 -3.93064,6.13771 -1.46053,1.896 -2.922,3.79093 -4.38449,5.68489 -3.19453,2.77118 -6.38993,5.54124 -9.58639,8.31036 -2.44511,1.71764 -4.89112,3.4342 -7.33817,5.14981 -2.53403,1.79712 -5.06896,3.59317 -7.60494,5.38826 -4.17167,1.64143 -8.34418,3.28179 -12.51777,4.92118 -5.12591,1.61 -10.25261,3.21893 -15.38041,4.8269 0.20823,-0.0718 0.41546,-0.14455 0.62169,-0.21833 1.27601,3.68323 2.55097,7.36532 3.82496,11.04649 1.29789,2.51699 2.59473,5.03289 3.89059,7.54784 2.11198,2.2581 4.22287,4.51512 6.33281,6.77118 2.20253,2.1183 4.40398,4.23551 6.60448,6.35177 3.2989,2.20206 6.59666,4.40304 9.8935,6.60306 3.45896,1.75785 6.91678,3.51463 10.37367,5.27045 4.84712,1.83832 9.69304,3.67556 14.53805,5.51184 3.77988,0.75558 7.55861,1.51013 11.33641,2.2637 3.58667,0.37985 7.17219,0.75869 10.75679,1.13654 3.30244,-0.57468 6.60376,-1.15034 9.90413,-1.72701 3.11475,-1.0048 6.22837,-2.01056 9.34105,-3.01734 3.16009,-2.30382 6.31905,-4.60854 9.47708,-6.91431 2.63759,-2.69613 5.27407,-5.39316 7.90961,-8.09124 1.7284,-3.15542 3.45574,-6.3117 5.18211,-9.46905 1.74088,-2.94996 3.4807,-5.9008 5.21955,-8.8527 0.75462,-2.02057 1.50821,-4.04207 2.26082,-6.06461 0.3188,0.12606 0.63659,0.25111 0.95339,0.37516 8.18365,6.14331 16.36596,12.28537 24.54745,18.42656 0.19853,0.14573 0.39606,0.29045 0.59259,0.43418 -1.3833,2.67614 -2.76754,5.35117 -4.15281,8.02526 -2.11805,2.84733 -4.23702,5.69355 -6.35703,8.53882 -2.6835,3.33156 -5.36789,6.66199 -8.05333,9.99148 -2.55692,2.76982 -5.11475,5.53853 -7.67362,8.3063 -2.20831,2.38643 -4.41753,4.77176 -6.62779,7.15613 -4.27653,2.48111 -8.55388,4.96112 -12.83232,7.44018 -3.72223,1.34518 -7.4453,2.68932 -11.16945,4.03247 -4.31124,0.69598 -8.6233,1.39092 -12.93645,2.08488 -4.39871,0.3246 -8.79825,0.64819 -13.19887,0.97078 -4.65186,-0.15977 -9.30452,-0.32055 -13.95828,-0.48232 -4.36041,-0.73661 -8.72164,-1.47419 -13.08396,-2.21279 -4.99518,-2.40965 -9.99116,-4.8202 -14.98824,-7.2318 -3.53821,-2.53529 -7.07728,-5.07147 -10.61743,-7.60871 -5.6374,-5.33099 -11.27558,-10.66278 -16.91487,-15.99567 -4.53276,-4.77453 -9.06633,-9.54987 -13.60099,-14.3263 -5.37035,-7.02276 -10.74147,-14.04624 -16.11371,-21.07087 -2.33814,-3.09887 -4.67718,-6.19862 -7.01727,-9.29943 -0.49552,-0.3522 -0.99203,-0.70539 -1.48954,-1.05958 z" />
          </g>
          <path
             style="display:inline;opacity:1;fill:#ffffff;fill-opacity:1;stroke:#ff0000;stroke-width:0;stroke-miterlimit:4;stroke-dasharray:none"
             id="path4970-5"
             sodipodi:type="arc"
             sodipodi:cx="791.00836"
             sodipodi:cy="623.70984"
             sodipodi:rx="29.495152"
             sodipodi:ry="29.999998"
             sodipodi:start="0"
             sodipodi:end="6.279363"
             sodipodi:open="true"
             sodipodi:arc-type="arc"
             d="m 820.50351,623.70984 a 29.495152,29.999998 0 0 1 -29.46696,29.99998 29.495152,29.999998 0 0 1 -29.52329,-29.94265 29.495152,29.999998 0 0 1 29.41055,-30.05721 29.495152,29.999998 0 0 1 29.57949,29.88521" />
          <path
             style="opacity:1;fill:#ffffff;fill-opacity:1;stroke:#ff0000;stroke-width:0;stroke-miterlimit:4;stroke-dasharray:none"
             id="path4970"
             sodipodi:type="arc"
             sodipodi:cx="384.15649"
             sodipodi:cy="625.2569"
             sodipodi:rx="29.495152"
             sodipodi:ry="29.999998"
             sodipodi:start="0"
             sodipodi:end="6.279363"
             sodipodi:open="true"
             sodipodi:arc-type="arc"
             d="m 413.65165,625.2569 a 29.495152,29.999998 0 0 1 -29.46697,29.99998 29.495152,29.999998 0 0 1 -29.52328,-29.94265 29.495152,29.999998 0 0 1 29.41054,-30.05721 29.495152,29.999998 0 0 1 29.57949,29.88521" />
        </g>
      </g>
    </g>
  </g>
</svg>
